<?xml version="1.0" encoding="utf-8"?>
<!-- Generator: Adobe Illustrator 16.0.0, SVG Export Plug-In . SVG Version: 6.00 Build 0)  -->
<!DOCTYPE svg PUBLIC "-//W3C//DTD SVG 1.1//EN" "http://www.w3.org/Graphics/SVG/1.1/DTD/svg11.dtd">
<svg version="1.1" id="Layer_1" xmlns="http://www.w3.org/2000/svg" xmlns:xlink="http://www.w3.org/1999/xlink" x="0px" y="0px"
	 width="143.775px" height="89.049px" viewBox="0 0 143.775 89.049" enable-background="new 0 0 143.775 89.049"
	 xml:space="preserve">
<g>
	<path fill="none" stroke="#BEC6CA" stroke-width="0.1" stroke-miterlimit="10" d="M23.172,60.463
		c-0.057,0.461-0.13,0.918-0.14,1.408c0.057-0.091,0.1-0.166,0.146-0.236c0.222-0.338,0.502-0.486,0.812-0.535
		c0.146-0.021,0.29-0.045,0.436-0.069c0.084-0.017,0.104-0.062,0.093-0.188c-0.022-0.224-0.146-0.394-0.326-0.453
		c-0.145-0.051-0.292-0.09-0.433-0.155c-0.157-0.075-0.293-0.206-0.38-0.42c-0.033-0.082-0.051-0.177-0.078-0.287
		c0.023,0.012,0.03,0.012,0.032,0.017c0.124,0.24,0.302,0.331,0.491,0.379c0.168,0.041,0.336,0.078,0.504,0.118
		c0.022,0.007,0.041,0.021,0.075,0.035c-0.195-0.476-0.487-0.837-0.624-1.375c0.046,0.062,0.082,0.111,0.115,0.162
		c0.123,0.168,0.248,0.337,0.369,0.51c0.169,0.244,0.332,0.494,0.446,0.806c0.091,0.242,0.153,0.496,0.133,0.781
		c-0.019,0.206-0.089,0.366-0.217,0.44c-0.116,0.065-0.243,0.104-0.366,0.133c-0.185,0.047-0.369,0.067-0.541,0.183
		c-0.313,0.205-0.479,0.572-0.528,1.067c-0.009,0.091-0.025,0.183-0.046,0.267c-0.027,0.112-0.089,0.17-0.169,0.168
		c-0.081-0.002-0.146-0.062-0.169-0.181c-0.022-0.112-0.038-0.233-0.042-0.354c-0.019-0.553,0.018-1.102,0.145-1.627
		c0.047-0.198,0.112-0.387,0.207-0.545c0.015-0.021,0.017-0.054,0.022-0.08C23.153,60.439,23.162,60.453,23.172,60.463z"/>
	<path fill="none" stroke="#BEC6CA" stroke-width="0.1" stroke-miterlimit="10" d="M22.01,60.463
		c0.057,0.461,0.129,0.918,0.138,1.408c-0.055-0.091-0.097-0.166-0.146-0.236c-0.223-0.338-0.501-0.486-0.812-0.535
		c-0.146-0.021-0.289-0.045-0.434-0.069c-0.085-0.017-0.106-0.062-0.096-0.188c0.022-0.224,0.146-0.394,0.325-0.453
		c0.146-0.051,0.293-0.09,0.436-0.155c0.154-0.075,0.292-0.206,0.379-0.42c0.032-0.082,0.048-0.177,0.079-0.287
		c-0.025,0.012-0.033,0.011-0.035,0.017c-0.124,0.24-0.301,0.331-0.49,0.379C21.186,59.963,21.018,60,20.85,60.04
		c-0.021,0.007-0.041,0.021-0.073,0.035c0.195-0.476,0.487-0.837,0.624-1.375c-0.045,0.062-0.081,0.111-0.115,0.162
		c-0.123,0.168-0.247,0.337-0.369,0.51c-0.169,0.244-0.332,0.494-0.444,0.806c-0.09,0.242-0.155,0.496-0.132,0.781
		c0.016,0.206,0.087,0.366,0.215,0.44c0.117,0.065,0.244,0.104,0.367,0.133c0.183,0.047,0.367,0.067,0.538,0.183
		c0.314,0.205,0.479,0.572,0.529,1.067c0.009,0.091,0.024,0.183,0.045,0.267c0.028,0.112,0.09,0.17,0.168,0.168
		c0.082-0.002,0.146-0.062,0.169-0.181c0.022-0.112,0.039-0.233,0.042-0.354c0.018-0.553-0.019-1.102-0.145-1.627
		c-0.047-0.198-0.112-0.387-0.207-0.545c-0.013-0.021-0.016-0.054-0.023-0.08C22.031,60.439,22.021,60.453,22.01,60.463z"/>
</g>
<g>
	<path fill="none" stroke="#BEC6CA" stroke-width="0.1" stroke-miterlimit="10" d="M14.01,11.433c0.038-0.102,0.075-0.202,0.113-0.3
		c0.011-0.026,0.004-0.042-0.012-0.065c-0.054-0.079-0.105-0.16-0.154-0.242c-0.014-0.021-0.021-0.036-0.053-0.038
		c-0.097-0.005-0.193-0.016-0.29-0.022c-0.028-0.001-0.038-0.011-0.042-0.038c-0.008-0.089-0.019-0.179-0.032-0.269
		c-0.002-0.024,0.003-0.033,0.026-0.041c0.095-0.029,0.189-0.059,0.286-0.093c0.015-0.006,0.027-0.024,0.037-0.041
		c0.032-0.095,0.065-0.19,0.1-0.286c0.004-0.015,0.003-0.037-0.004-0.05c-0.06-0.091-0.12-0.179-0.179-0.266
		c0.083-0.079,0.16-0.158,0.241-0.239c0.084,0.055,0.177,0.112,0.265,0.171c0.021,0.015,0.039,0.015,0.062,0.005
		c0.09-0.035,0.183-0.067,0.272-0.096c0.027-0.008,0.045-0.018,0.054-0.048c0.027-0.09,0.059-0.18,0.085-0.269
		c0.008-0.027,0.021-0.034,0.048-0.03c0.09,0.013,0.183,0.021,0.271,0.03c0.024,0.001,0.033,0.011,0.034,0.035
		c0.007,0.099,0.016,0.197,0.025,0.295c0.001,0.014,0.018,0.032,0.028,0.041c0.087,0.055,0.173,0.108,0.262,0.16
		c0.018,0.008,0.039,0.013,0.054,0.007c0.104-0.037,0.204-0.075,0.31-0.114c0.062,0.094,0.121,0.187,0.183,0.283
		c-0.079,0.074-0.154,0.148-0.233,0.219c-0.022,0.02-0.023,0.036-0.021,0.064c0.018,0.096,0.026,0.193,0.035,0.288
		c0.001,0.024,0.006,0.041,0.029,0.053c0.083,0.048,0.167,0.098,0.251,0.144c0.023,0.015,0.029,0.028,0.019,0.056
		c-0.034,0.092-0.064,0.185-0.099,0.281c-0.104-0.015-0.203-0.025-0.304-0.042c-0.036-0.004-0.061,0.001-0.088,0.033
		c-0.061,0.068-0.127,0.131-0.193,0.193c-0.022,0.019-0.034,0.032-0.028,0.064c0.02,0.102,0.031,0.206,0.045,0.314
		c-0.1,0.036-0.202,0.071-0.303,0.104c-0.008,0.003-0.027-0.013-0.034-0.023c-0.051-0.082-0.1-0.164-0.148-0.247
		c-0.014-0.021-0.026-0.027-0.054-0.028c-0.101-0.009-0.202-0.019-0.301-0.034c-0.024-0.004-0.038,0-0.054,0.017
		c-0.074,0.079-0.148,0.156-0.228,0.238C14.201,11.55,14.107,11.493,14.01,11.433z M14.82,9.79
		c-0.363-0.001-0.657,0.288-0.657,0.647c0,0.356,0.292,0.647,0.654,0.647c0.361,0.001,0.658-0.289,0.659-0.642
		C15.477,10.081,15.184,9.792,14.82,9.79z"/>
	<path fill="none" stroke="#BEC6CA" stroke-width="0.1" stroke-miterlimit="10" d="M12.871,10.711
		c-0.047-0.075-0.091-0.148-0.135-0.223c-0.014-0.022-0.028-0.031-0.056-0.033c-0.079-0.004-0.159-0.015-0.239-0.024
		c-0.025-0.004-0.038,0-0.057,0.017c-0.053,0.058-0.106,0.113-0.161,0.17c-0.018,0.018-0.028,0.021-0.051,0.007
		c-0.062-0.04-0.127-0.077-0.188-0.118c-0.01-0.007-0.02-0.03-0.013-0.041c0.023-0.074,0.055-0.147,0.083-0.219
		c0.01-0.022,0.005-0.038-0.012-0.058c-0.045-0.064-0.088-0.132-0.129-0.2c-0.013-0.022-0.023-0.033-0.05-0.035
		c-0.088-0.005-0.175-0.012-0.266-0.021c-0.012-0.085-0.021-0.169-0.026-0.251c-0.001-0.013,0.014-0.03,0.025-0.035
		c0.073-0.026,0.148-0.05,0.225-0.072c0.023-0.007,0.032-0.019,0.038-0.04c0.022-0.078,0.051-0.155,0.082-0.229
		c0.009-0.023,0.006-0.037-0.007-0.056c-0.049-0.07-0.1-0.143-0.146-0.212c0.067-0.066,0.134-0.131,0.205-0.199
		c0.066,0.042,0.143,0.09,0.212,0.138c0.025,0.014,0.041,0.013,0.065,0.002c0.074-0.029,0.147-0.055,0.224-0.077
		c0.024-0.007,0.038-0.017,0.045-0.04c0.025-0.083,0.054-0.166,0.08-0.252c0.089,0.01,0.175,0.018,0.264,0.029
		c0.01,0.001,0.021,0.021,0.021,0.035c0.008,0.075,0.015,0.149,0.021,0.225c0,0.025,0.01,0.039,0.033,0.053
		c0.07,0.04,0.139,0.082,0.205,0.127c0.021,0.012,0.034,0.016,0.058,0.008c0.082-0.033,0.164-0.063,0.25-0.097
		c0.051,0.078,0.101,0.156,0.151,0.236c-0.062,0.059-0.125,0.118-0.187,0.173c-0.024,0.022-0.03,0.041-0.024,0.073
		c0.016,0.075,0.021,0.151,0.026,0.228c0.001,0.026,0.008,0.039,0.03,0.051c0.065,0.037,0.134,0.077,0.2,0.116
		C13.693,9.88,13.7,9.89,13.692,9.915c-0.025,0.066-0.048,0.132-0.07,0.201c-0.008,0.027-0.021,0.032-0.048,0.029
		c-0.075-0.013-0.15-0.021-0.226-0.032c-0.026-0.004-0.041,0.004-0.061,0.023c-0.051,0.056-0.104,0.111-0.161,0.161
		c-0.023,0.022-0.031,0.042-0.025,0.074c0.012,0.07,0.021,0.139,0.03,0.209c0.006,0.027-0.002,0.043-0.028,0.051
		C13.027,10.656,12.951,10.684,12.871,10.711z M12.639,9.12c-0.306-0.002-0.548,0.237-0.553,0.542
		c-0.003,0.292,0.246,0.539,0.544,0.539c0.304,0.001,0.554-0.24,0.555-0.535C13.187,9.366,12.942,9.122,12.639,9.12z"/>
	<path fill="none" stroke="#BEC6CA" stroke-width="0.1" stroke-miterlimit="10" d="M13.887,9.329
		c-0.062-0.037-0.12-0.074-0.181-0.11c0.022-0.06,0.043-0.119,0.066-0.176c0.011-0.022,0.006-0.038-0.01-0.058
		c-0.031-0.041-0.06-0.085-0.083-0.13c-0.015-0.022-0.024-0.036-0.054-0.037c-0.062-0.002-0.123-0.011-0.188-0.016
		c-0.009-0.068-0.02-0.135-0.025-0.206c0.065-0.021,0.125-0.039,0.188-0.06C13.615,8.53,13.63,8.515,13.635,8.5
		c0.021-0.053,0.04-0.107,0.057-0.162c0.005-0.016,0.004-0.038-0.003-0.051c-0.033-0.053-0.069-0.103-0.103-0.149
		c0.054-0.051,0.102-0.099,0.154-0.152c0.044,0.03,0.096,0.063,0.147,0.099c0.021,0.014,0.034,0.016,0.06,0.004
		c0.048-0.021,0.099-0.042,0.15-0.054c0.027-0.007,0.04-0.019,0.046-0.044c0.015-0.048,0.031-0.094,0.046-0.144
		c0.006-0.021,0.015-0.032,0.04-0.028c0.059,0.008,0.119,0.013,0.179,0.02c0.007,0.06,0.014,0.12,0.017,0.177
		c0.002,0.03,0.013,0.045,0.04,0.059c0.049,0.023,0.092,0.056,0.139,0.084c0.014,0.008,0.035,0.013,0.05,0.007
		c0.06-0.02,0.12-0.043,0.182-0.067c0.039,0.06,0.075,0.116,0.112,0.176C14.9,8.318,14.855,8.362,14.81,8.404
		c-0.021,0.017-0.024,0.03-0.02,0.056c0.01,0.051,0.018,0.103,0.02,0.156c0.001,0.024,0.006,0.041,0.028,0.053
		c0.049,0.024,0.095,0.052,0.141,0.081c0.01,0.006,0.02,0.026,0.018,0.037c-0.018,0.057-0.039,0.113-0.062,0.174
		c-0.062-0.009-0.125-0.016-0.188-0.026c-0.023-0.004-0.04,0.003-0.057,0.022c-0.034,0.041-0.073,0.078-0.113,0.113
		c-0.019,0.017-0.028,0.03-0.021,0.056c0.012,0.052,0.019,0.104,0.021,0.158c0,0.012-0.012,0.031-0.021,0.037
		C14.508,9.34,14.46,9.356,14.411,9.37c-0.012,0.003-0.033-0.005-0.041-0.017c-0.03-0.044-0.057-0.089-0.083-0.135
		C14.277,9.2,14.265,9.191,14.24,9.19c-0.056-0.003-0.112-0.014-0.169-0.018c-0.016,0-0.038,0.006-0.048,0.018
		C13.975,9.234,13.933,9.28,13.887,9.329z M14.618,8.598c-0.001-0.223-0.185-0.4-0.412-0.398c-0.222,0.002-0.404,0.183-0.401,0.401
		c0.001,0.224,0.187,0.407,0.408,0.403C14.438,9,14.619,8.819,14.618,8.598z"/>
	<path fill="none" stroke="#BEC6CA" stroke-width="0.1" stroke-miterlimit="10" d="M14.373,10.435
		c0.001-0.243,0.2-0.437,0.446-0.437c0.248,0,0.447,0.199,0.446,0.442c-0.002,0.241-0.203,0.438-0.449,0.436
		C14.572,10.876,14.372,10.677,14.373,10.435z M14.542,10.437c0,0.151,0.122,0.273,0.276,0.274c0.149,0,0.278-0.125,0.278-0.274
		c0-0.153-0.126-0.272-0.281-0.272C14.664,10.165,14.542,10.287,14.542,10.437z"/>
	<path fill="none" stroke="#BEC6CA" stroke-width="0.1" stroke-miterlimit="10" d="M13.009,9.662c0,0.201-0.166,0.365-0.37,0.365
		c-0.206,0-0.373-0.166-0.373-0.369c0.001-0.201,0.169-0.366,0.374-0.366C12.844,9.293,13.009,9.458,13.009,9.662z M12.867,9.662
		c0-0.128-0.104-0.23-0.229-0.23c-0.128,0.001-0.229,0.103-0.229,0.229S12.513,9.89,12.64,9.89
		C12.765,9.889,12.867,9.785,12.867,9.662z"/>
	<path fill="none" stroke="#BEC6CA" stroke-width="0.1" stroke-miterlimit="10" d="M14.208,8.874
		c-0.151-0.001-0.275-0.125-0.274-0.274c0.001-0.15,0.126-0.274,0.276-0.273c0.152,0.001,0.277,0.126,0.276,0.275
		C14.486,8.751,14.362,8.874,14.208,8.874z M14.213,8.43c-0.095-0.001-0.175,0.074-0.176,0.167
		c-0.001,0.094,0.074,0.169,0.168,0.172c0.093,0.003,0.174-0.072,0.177-0.166C14.385,8.511,14.309,8.434,14.213,8.43z"/>
</g>
<path fill="none" stroke="#BEC6CA" stroke-width="0.1" stroke-miterlimit="10" d="M6.836,31.868
	c-0.227,0.322-0.475,0.537-0.593,0.615c-0.387,0.25-0.812,0.373-1.258,0.338c0.124-0.066,0.286-0.125,0.409-0.227
	c0.365-0.299,0.514-0.689,0.464-1.145c-0.043-0.389-0.243-0.719-0.491-1.043c-0.013,0.053-0.021,0.089-0.032,0.125
	c-0.081,0.312-0.26,0.561-0.541,0.738c-0.137,0.086-0.275,0.166-0.406,0.254c-0.303,0.209-0.436,0.537-0.336,0.848
	c0.024,0.084,0.078,0.16,0.128,0.261c-0.114-0.067-0.223-0.126-0.319-0.196c-0.356-0.263-0.589-0.6-0.638-1.031
	c-0.041-0.359,0.075-0.686,0.28-0.98c0.21-0.305,0.496-0.533,0.839-0.697c0.007-0.004,0.016-0.008,0.017-0.008
	c-0.05,0.078-0.113,0.154-0.154,0.236c-0.07,0.154-0.004,0.263,0.171,0.285c0.104,0.014,0.199-0.014,0.281-0.078
	c0.227-0.17,0.336-0.4,0.392-0.658c0.076-0.365,0.055-0.73,0.009-1.098c-0.004-0.031-0.006-0.062,0.001-0.096
	c0.488,0.432,0.793,0.976,1.059,1.553c0.093-0.131,0.113-0.273,0.122-0.416c0.012-0.143,0.002-0.283,0.002-0.452
	c0.153,0.208,0.308,0.396,0.438,0.601c0.273,0.428,0.427,0.889,0.407,1.395C7.07,31.298,6.992,31.589,6.836,31.868z"/>
<g>
	<path fill="none" stroke="#BEC6CA" stroke-width="0.1" stroke-miterlimit="10" d="M117.384,31.806
		c0.074,0.111,0.144,0.212,0.217,0.323c-0.018,0.017-0.035,0.03-0.053,0.046c-0.267,0.281-0.504,0.587-0.674,0.947
		c-0.104,0.223-0.177,0.455-0.162,0.708c0.006,0.09,0.021,0.176,0.062,0.259c0.004-0.032,0.006-0.062,0.013-0.091
		c0.025-0.18,0.104-0.339,0.19-0.492c0.198-0.342,0.444-0.643,0.694-0.943c0.031-0.041,0.067-0.081,0.102-0.122
		c0.002-0.001,0.007-0.001,0.015-0.005c0.487,0.615,1.056,1.133,1.699,1.557c-0.006,0.009-0.007,0.014-0.011,0.018
		c-0.266,0.313-0.553,0.597-0.897,0.807c-0.283,0.173-0.588,0.272-0.917,0.268c-0.211-0.002-0.414-0.048-0.611-0.12
		c-0.092-0.034-0.176-0.034-0.264,0.011c-0.027,0.016-0.061,0.024-0.091,0.033c-0.062,0.021-0.123,0.016-0.171-0.042
		c-0.05-0.06-0.062-0.127-0.036-0.202c0.019-0.044,0.039-0.089,0.063-0.13c0.037-0.059,0.044-0.113,0.019-0.182
		c-0.082-0.188-0.134-0.388-0.153-0.593c-0.035-0.337,0.01-0.659,0.137-0.97c0.142-0.343,0.354-0.628,0.608-0.878
		C117.232,31.943,117.307,31.877,117.384,31.806z"/>
	<path fill="none" stroke="#BEC6CA" stroke-width="0.1" stroke-miterlimit="10" d="M119.739,31.714
		c0.069,0.098,0.146,0.194,0.214,0.299c0.127,0.193,0.229,0.402,0.28,0.633c0.104,0.43,0.006,0.8-0.274,1.119
		c-0.033,0.037-0.076,0.039-0.119,0.034c-0.135-0.012-0.251-0.078-0.363-0.153c-0.271-0.176-0.508-0.399-0.737-0.633
		c-0.245-0.249-0.481-0.508-0.698-0.789c-0.156-0.202-0.312-0.409-0.402-0.654c-0.025-0.069-0.037-0.146-0.047-0.219
		c-0.008-0.042,0.014-0.078,0.043-0.109c0.16-0.166,0.344-0.279,0.563-0.318c0.185-0.032,0.359-0.005,0.534,0.056
		c0.277,0.098,0.52,0.262,0.739,0.463c0.069,0.062,0.134,0.13,0.2,0.193c0.171-0.107,0.273-0.314,0.203-0.545
		c-0.024-0.074-0.062-0.144-0.099-0.208c-0.064-0.107-0.056-0.202,0.043-0.276c0.088-0.066,0.211-0.046,0.265,0.05
		c0.026,0.052,0.037,0.118,0.041,0.179c0.018,0.26-0.033,0.5-0.199,0.7C119.87,31.601,119.802,31.656,119.739,31.714z"/>
</g>
<g>
	<path fill="none" stroke="#BEC6CA" stroke-width="0.1" stroke-miterlimit="10" d="M33.56,28.314
		c0.049,0.382,0.099,0.765,0.152,1.176c0.058,0.027,0.152,0.071,0.26,0.122c-0.088,0.014-0.161,0.025-0.255,0.039
		c0.013,0.056,0.021,0.115,0.037,0.173c0.047,0.176,0.018,0.351,0.004,0.524c-0.002,0.038,0.077,0.079,0.116,0.117
		c-0.146,0.087-0.204,0.655-0.062,0.862c-0.022,0.021-0.045,0.044-0.079,0.074c0.038,0.024,0.073,0.048,0.121,0.08
		c-0.056,0.02-0.104,0.038-0.137,0.049c-0.047,0.436-0.095,0.866-0.146,1.297c-0.017-0.001-0.031-0.001-0.051-0.001
		c-0.004-0.15-0.089-0.281-0.065-0.444c0.02-0.135,0.02-0.3-0.139-0.407c-0.021-0.015-0.057-0.018-0.099-0.029
		c0.146-0.016,0.166-0.079,0.146-0.193c-0.037-0.226-0.042-0.457-0.064-0.686c-0.001-0.012-0.04-0.021-0.059-0.031
		c0.151-0.125,0.088-0.805-0.086-0.895c0.228-0.054,0.201-0.084,0.074-0.24c-0.044,0.002-0.092,0.007-0.151,0.01
		c0.268-0.175,0.301-0.256,0.182-0.429c0.122-0.093,0.135-0.669,0.098-0.734c0.039-0.081,0.075-0.144,0.102-0.209
		c0.028-0.075,0.048-0.152,0.07-0.228C33.54,28.314,33.55,28.314,33.56,28.314z"/>
	<path fill="none" stroke="#BEC6CA" stroke-width="0.1" stroke-miterlimit="10" d="M34.723,28.523
		c0.073,0.295-0.035,0.579,0.148,0.839c-0.125,0.14-0.144,0.286-0.022,0.435c-0.157,0.065-0.08,0.189-0.087,0.291
		c-0.008,0.11-0.005,0.229,0.188,0.229c-0.06,0.009-0.119,0.019-0.181,0.027c0.017,0.048,0.028,0.098,0.044,0.154
		c-0.164,0.048-0.071,0.205-0.114,0.312c-0.038,0.1-0.036,0.212-0.052,0.32c-0.015,0.104-0.044,0.21-0.04,0.317
		c0.002,0.064,0.059,0.129,0.086,0.19c-0.059,0.027-0.152,0.019-0.146,0.169c0.009,0.155-0.105,0.313-0.188,0.471
		c-0.013-0.396-0.026-0.794-0.042-1.188c-0.053-0.016-0.094-0.03-0.151-0.048c0.147-0.046,0.192-0.126,0.184-0.244
		c-0.006-0.074,0.014-0.149,0.031-0.222c0-0.094,0-0.188,0-0.294c-0.033-0.013-0.084-0.035-0.158-0.064
		c0.122-0.035,0.26-0.026,0.177-0.19c-0.045-0.089-0.015-0.212-0.001-0.318c0.008-0.056,0.059-0.108,0.075-0.162
		c0.021-0.059,0.049-0.127,0.028-0.178c-0.032-0.075-0.104-0.138-0.157-0.206c0.029,0,0.086,0,0.162,0
		C34.576,28.962,34.646,28.754,34.723,28.523z"/>
	<path fill="none" stroke="#BEC6CA" stroke-width="0.1" stroke-miterlimit="10" d="M32.818,31.366
		c-0.1,0.256-0.052,0.559-0.104,0.858c-0.038-0.119-0.065-0.242-0.115-0.359c-0.044-0.107-0.111-0.207-0.163-0.298
		c0.018-0.074,0.046-0.152,0.044-0.229c-0.001-0.127,0.034-0.264-0.095-0.369c-0.014-0.011,0.044-0.07,0.039-0.103
		c-0.011-0.073-0.048-0.143-0.059-0.214c-0.006-0.042,0.022-0.086,0.043-0.157c-0.1-0.034-0.209-0.072-0.318-0.11
		c0.12-0.022,0.254-0.062,0.245-0.201c-0.023-0.476-0.027-0.476-0.288-0.576c0.062-0.002,0.109,0.008,0.129-0.008
		c0.044-0.036,0.119-0.104,0.105-0.128c-0.073-0.129-0.029-0.255-0.017-0.381c0.015-0.14,0.059-0.279,0.094-0.438
		c0.061,0.225,0.111,0.433,0.17,0.641c0.01,0.037,0.042,0.069,0.062,0.104c0.007,0.013,0.022,0.027,0.019,0.036
		c-0.091,0.19,0.096,0.378,0.005,0.565c-0.001,0.004-0.004,0.011-0.001,0.013c0.154,0.207,0.038,0.44,0.09,0.656
		c0.01,0.046,0.071,0.083,0.106,0.118c-0.021,0.047-0.077,0.104-0.072,0.158C32.749,31.079,32.788,31.212,32.818,31.366z"/>
</g>
<path fill="none" stroke="#BEC6CA" stroke-width="0.1" stroke-miterlimit="10" d="M45.775,53.288
	c0.057,0.002,0.198-0.028,0.29-0.082c0.094-0.055,0.146-0.135,0.149-0.238c0.002-0.047,0-0.096,0-0.146
	c-0.072,0.045-0.14,0.086-0.208,0.127c-0.043,0.026-0.107,0.063-0.133,0.076c0.079-0.318,0.158-0.631,0.237-0.947
	c0.285,0.209,0.563,0.418,0.849,0.625c-0.001,0.002-0.001,0.002-0.001,0.006c-0.144,0.002-0.288,0.009-0.434,0.013
	c0.002,0.011,0.005,0.019,0.008,0.024c0.038,0.102,0.062,0.205,0.055,0.314c-0.018,0.239-0.119,0.432-0.347,0.553
	c-0.136,0.073-0.284,0.119-0.434,0.162c-0.139,0.039-0.277,0.071-0.41,0.123c-0.153,0.059-0.296,0.133-0.413,0.244
	c-0.049,0.044-0.088,0.094-0.116,0.148c-0.002,0-0.003,0-0.004,0c-0.063-0.117-0.165-0.2-0.278-0.27
	c-0.153-0.095-0.321-0.154-0.497-0.201c-0.164-0.043-0.33-0.088-0.484-0.152c-0.088-0.037-0.172-0.076-0.241-0.139
	c-0.117-0.104-0.188-0.231-0.212-0.381c-0.026-0.139-0.003-0.273,0.045-0.404c0.003-0.006,0.006-0.012,0.009-0.022
	c-0.147-0.004-0.29-0.009-0.434-0.013c-0.001-0.002-0.004-0.002-0.004-0.004c0.28-0.209,0.563-0.418,0.85-0.627
	c0.019,0.076,0.036,0.147,0.054,0.218l0.045,0.178c0.046,0.187,0.094,0.372,0.143,0.562c-0.116-0.071-0.229-0.142-0.343-0.211
	c-0.012,0.086-0.007,0.168,0.021,0.246c0.02,0.059,0.064,0.101,0.121,0.133c0.308,0.189,0.741,0.049,0.826-0.319
	c0.02-0.086,0.024-0.173,0.034-0.263c0.015-0.123,0.023-0.246,0.034-0.367c0.008-0.096,0.015-0.19,0.021-0.286
	c0.003-0.06,0.007-0.119,0.009-0.177c0.001-0.014,0.003-0.037,0.003-0.057c0.001-0.01,0.001-0.015,0.002-0.029
	c0.001-0.02-0.01-0.026-0.021-0.03c-0.062-0.019-0.124-0.033-0.187-0.052c-0.194-0.06-0.389-0.118-0.584-0.178
	c-0.017-0.004-0.022-0.012-0.022-0.029c0.001-0.104,0-0.209,0-0.313c0-0.004,0.001-0.008,0.002-0.015c0.135,0,0.271,0,0.406,0
	c0.138,0,0.271,0,0.408,0c0-0.043,0-0.086,0-0.129c0-0.004-0.01-0.012-0.017-0.016c-0.143-0.07-0.244-0.172-0.308-0.31
	c-0.164-0.363,0.075-0.774,0.486-0.845c0.13-0.022,0.256-0.008,0.377,0.043c0.012,0.004,0.033,0.016,0.082,0.039
	c0.056,0.035,0.088,0.061,0.127,0.099c0.3,0.296,0.215,0.78-0.168,0.972c-0.021,0.01-0.027,0.02-0.026,0.041
	c0.001,0.033,0,0.068,0,0.106c0.274,0,0.546,0,0.816,0c0.001,0.008,0.002,0.015,0.002,0.021c0,0.104,0,0.209,0,0.312
	c0,0.015-0.005,0.021-0.02,0.025c-0.26,0.078-0.517,0.156-0.771,0.233c-0.021,0.006-0.027,0.015-0.023,0.036
	c0.009,0.109,0.013,0.22,0.021,0.33c0.009,0.129,0.018,0.257,0.03,0.385c0.009,0.102,0.019,0.204,0.029,0.305
	c0.012,0.086,0.022,0.172,0.062,0.256c0.056,0.115,0.208,0.232,0.267,0.252c0.028,0.011,0.065,0.023,0.103,0.031
	C45.698,53.282,45.745,53.286,45.775,53.288z M44.865,50.622c0.132,0,0.242-0.102,0.242-0.227c0-0.126-0.104-0.23-0.237-0.23
	c-0.136,0-0.245,0.101-0.245,0.226C44.622,50.52,44.729,50.622,44.865,50.622z"/>
<g>
	<path fill="none" stroke="#BEC6CA" stroke-width="0.1" stroke-miterlimit="10" d="M83.609,67.69
		c-0.057,0.462-0.129,0.918-0.137,1.408c0.054-0.09,0.096-0.166,0.145-0.235c0.225-0.339,0.503-0.489,0.812-0.537
		c0.146-0.022,0.291-0.043,0.435-0.07c0.085-0.014,0.107-0.062,0.097-0.188c-0.021-0.224-0.146-0.396-0.326-0.455
		c-0.146-0.05-0.292-0.089-0.435-0.156c-0.155-0.073-0.294-0.205-0.38-0.419c-0.031-0.081-0.051-0.177-0.079-0.286
		c0.024,0.011,0.032,0.011,0.033,0.015c0.125,0.239,0.301,0.332,0.491,0.377c0.168,0.041,0.337,0.08,0.504,0.121
		c0.021,0.006,0.045,0.02,0.076,0.035c-0.195-0.476-0.488-0.839-0.623-1.375c0.045,0.063,0.08,0.11,0.114,0.161
		c0.123,0.169,0.246,0.337,0.368,0.511c0.169,0.244,0.334,0.494,0.445,0.806c0.091,0.241,0.154,0.495,0.131,0.782
		c-0.016,0.205-0.088,0.365-0.215,0.438c-0.117,0.065-0.244,0.104-0.365,0.136c-0.184,0.043-0.367,0.065-0.543,0.178
		c-0.312,0.207-0.479,0.574-0.525,1.069c-0.01,0.091-0.024,0.183-0.045,0.269c-0.027,0.111-0.09,0.169-0.168,0.169
		c-0.083-0.003-0.148-0.063-0.169-0.181c-0.024-0.115-0.039-0.234-0.042-0.354c-0.02-0.557,0.018-1.104,0.144-1.627
		c0.048-0.201,0.112-0.389,0.206-0.547c0.012-0.021,0.016-0.055,0.022-0.078C83.59,67.668,83.599,67.681,83.609,67.69z"/>
	<path fill="none" stroke="#BEC6CA" stroke-width="0.1" stroke-miterlimit="10" d="M82.447,67.69
		c0.061,0.462,0.132,0.918,0.139,1.408c-0.055-0.09-0.098-0.166-0.146-0.235c-0.223-0.339-0.501-0.489-0.812-0.537
		c-0.146-0.022-0.29-0.043-0.438-0.07c-0.084-0.014-0.104-0.062-0.094-0.188c0.021-0.224,0.146-0.396,0.324-0.455
		c0.146-0.05,0.294-0.089,0.435-0.156c0.155-0.073,0.294-0.205,0.38-0.419c0.033-0.081,0.052-0.177,0.079-0.286
		c-0.022,0.011-0.03,0.011-0.034,0.015c-0.124,0.239-0.3,0.332-0.488,0.377c-0.17,0.041-0.336,0.08-0.504,0.121
		c-0.021,0.006-0.043,0.02-0.076,0.035c0.193-0.476,0.488-0.839,0.623-1.375c-0.045,0.063-0.082,0.11-0.113,0.161
		c-0.125,0.169-0.248,0.337-0.371,0.511c-0.168,0.244-0.33,0.494-0.447,0.806c-0.09,0.241-0.15,0.495-0.131,0.782
		c0.018,0.205,0.088,0.365,0.217,0.438c0.117,0.065,0.243,0.104,0.366,0.136c0.185,0.043,0.369,0.065,0.54,0.178
		c0.315,0.207,0.48,0.574,0.529,1.069c0.01,0.091,0.021,0.183,0.045,0.269c0.028,0.111,0.089,0.169,0.17,0.169
		c0.082-0.003,0.146-0.063,0.168-0.181c0.023-0.115,0.039-0.234,0.042-0.354c0.019-0.557-0.018-1.104-0.144-1.627
		c-0.048-0.201-0.113-0.389-0.207-0.547c-0.016-0.021-0.019-0.055-0.023-0.078C82.467,67.668,82.458,67.681,82.447,67.69z"/>
</g>
<g>
	<path fill="none" stroke="#BEC6CA" stroke-width="0.1" stroke-miterlimit="10" d="M129.981,12.111
		c-0.029,0.231,0.133,0.428,0.364,0.428c0.065,0,0.151,0.021,0.18,0.06c0.056,0.086,0.083,0.042,0.121-0.001
		c0.019-0.02,0.045-0.039,0.06-0.007c0.061,0.128,0.158,0.084,0.241,0.049c0.183-0.078,0.322-0.21,0.422-0.385
		c0.031-0.056,0.065-0.117,0.06-0.18c-0.019-0.172-0.049-0.342-0.07-0.491c-0.039-0.15-0.107-0.246-0.24-0.288
		c-0.021-0.008-0.053-0.024-0.078,0.002c-0.077,0.08-0.166,0.031-0.221-0.012c-0.088-0.068-0.163-0.045-0.246-0.018
		c-0.061,0.02-0.116,0.051-0.179,0.064c-0.275,0.067-0.372,0.271-0.394,0.492C129.994,11.922,129.996,12.017,129.981,12.111z"/>
	<path fill="none" stroke="#BEC6CA" stroke-width="0.1" stroke-miterlimit="10" d="M128.796,12.681
		c0.059-0.006,0.117-0.022,0.176-0.034c0.16-0.054,0.299-0.149,0.442-0.232c0.274-0.155,0.371-0.363,0.261-0.656
		c-0.023-0.066-0.062-0.134-0.061-0.203c0.004-0.132-0.09-0.189-0.174-0.243c-0.074-0.047-0.168-0.076-0.256-0.089
		c-0.133-0.019-0.271-0.041-0.391,0.052c-0.309,0.246-0.477,0.565-0.468,0.963C128.335,12.535,128.499,12.714,128.796,12.681z"/>
	<path fill="none" stroke="#BEC6CA" stroke-width="0.1" stroke-miterlimit="10" d="M128.511,14.831
		c0.05,0.078,0.104,0.151,0.144,0.234c0.057,0.137,0.156,0.224,0.286,0.28c0.081,0.036,0.153,0.085,0.257,0.055
		c0.069-0.019,0.149,0.069,0.193,0.038c0.164-0.067,0.312-0.107,0.375-0.221c0.127-0.227,0.271-0.44,0.402-0.659
		c0.113-0.183,0.194-0.386,0.264-0.591c0.059-0.19,0.098-0.385,0.068-0.585c-0.045-0.328-0.178-0.456-0.52-0.457
		c-0.055,0-0.113,0.011-0.168,0.019c-0.173,0.026-0.334,0.09-0.502,0.131c-0.184,0.044-0.361,0.058-0.54-0.011
		c-0.033-0.012-0.062-0.013-0.091,0.003c-0.211,0.121-0.427,0.239-0.635,0.361c-0.062,0.038-0.098,0.101-0.101,0.178
		c-0.003,0.051,0,0.107-0.009,0.157c-0.037,0.206,0.022,0.359,0.213,0.459c0.062,0.035,0.122,0.084,0.171,0.141
		c0.048,0.056,0.081,0.118,0.085,0.191C128.416,14.66,128.458,14.747,128.511,14.831z"/>
	<path fill="none" stroke="#BEC6CA" stroke-width="0.1" stroke-miterlimit="10" d="M132.329,13.15
		c-0.045-0.048-0.09-0.1-0.094-0.172c-0.012-0.129-0.188-0.295-0.316-0.289c-0.25,0.01-0.479,0.084-0.672,0.251
		c-0.033,0.03-0.068,0.059-0.083,0.107c-0.019,0.083-0.069,0.144-0.118,0.211c-0.062,0.096-0.109,0.196-0.021,0.316
		c0.053,0.073,0.061,0.18,0.01,0.251c-0.06,0.083-0.047,0.16,0.002,0.213c0.146,0.157,0.311,0.292,0.549,0.254
		c0.096-0.014,0.188-0.034,0.311-0.079c0.111-0.018,0.225-0.093,0.301-0.224c0.016-0.027,0.039-0.05,0.061-0.074
		c0.107-0.109,0.189-0.216,0.193-0.394C132.45,13.371,132.427,13.256,132.329,13.15z"/>
	<path fill="none" stroke="#BEC6CA" stroke-width="0.1" stroke-miterlimit="10" d="M131.883,14.878
		c-0.065-0.104-0.132-0.211-0.203-0.307c-0.12-0.153-0.274-0.219-0.441-0.153c-0.073,0.022-0.131,0.029-0.158,0.069
		c-0.047,0.064-0.113,0.081-0.18,0.112c-0.147,0.068-0.281,0.157-0.379,0.295c-0.104,0.147-0.097,0.275,0.014,0.415
		c0.021,0.025,0.052,0.049,0.043,0.083c-0.037,0.143,0.07,0.184,0.162,0.23c0.082,0.043,0.182,0.032,0.259,0.062
		c0.206,0.08,0.384,0.026,0.565-0.055c0.032-0.015,0.084-0.036,0.084-0.055c0.004-0.089,0.064-0.053,0.105-0.062
		c0.021-0.003,0.042,0.036,0.056-0.015c0.038-0.179,0.088-0.354,0.091-0.538C131.897,14.931,131.901,14.903,131.883,14.878z"/>
</g>
<g>
	<path fill="none" stroke="#BEC6CA" stroke-width="0.1" stroke-miterlimit="10" d="M100.063,82.849
		c0.073,0.11,0.145,0.212,0.215,0.321c-0.018,0.018-0.033,0.031-0.052,0.048c-0.267,0.28-0.505,0.586-0.673,0.946
		c-0.105,0.223-0.176,0.455-0.163,0.709c0.005,0.091,0.021,0.176,0.063,0.257c0.002-0.03,0.004-0.062,0.008-0.091
		c0.026-0.178,0.104-0.34,0.19-0.494c0.2-0.342,0.444-0.641,0.694-0.941c0.034-0.041,0.069-0.082,0.104-0.121
		c0.002-0.002,0.005-0.003,0.01-0.006c0.49,0.615,1.059,1.133,1.701,1.559c-0.003,0.008-0.006,0.016-0.01,0.019
		c-0.266,0.312-0.555,0.598-0.897,0.81c-0.286,0.172-0.588,0.271-0.919,0.266c-0.209-0.002-0.411-0.047-0.61-0.119
		c-0.091-0.033-0.175-0.033-0.265,0.013c-0.027,0.015-0.061,0.022-0.089,0.034c-0.065,0.02-0.123,0.016-0.171-0.043
		c-0.051-0.059-0.063-0.127-0.035-0.203c0.018-0.044,0.039-0.088,0.062-0.129c0.035-0.059,0.043-0.114,0.016-0.184
		c-0.08-0.188-0.133-0.389-0.151-0.592c-0.036-0.338,0.01-0.66,0.136-0.971c0.143-0.344,0.354-0.627,0.609-0.881
		C99.913,82.986,99.987,82.92,100.063,82.849z"/>
	<path fill="none" stroke="#BEC6CA" stroke-width="0.1" stroke-miterlimit="10" d="M102.419,82.756
		c0.066,0.099,0.145,0.195,0.211,0.299c0.128,0.193,0.229,0.402,0.283,0.633c0.102,0.43,0.004,0.803-0.277,1.118
		c-0.031,0.038-0.076,0.04-0.119,0.035c-0.135-0.013-0.25-0.079-0.363-0.153c-0.271-0.176-0.51-0.398-0.736-0.631
		c-0.244-0.25-0.484-0.509-0.699-0.789c-0.157-0.202-0.312-0.408-0.402-0.656c-0.025-0.064-0.036-0.144-0.049-0.219
		c-0.008-0.041,0.015-0.076,0.045-0.107c0.16-0.166,0.342-0.277,0.564-0.314c0.182-0.033,0.357-0.01,0.535,0.055
		c0.274,0.102,0.518,0.266,0.738,0.465c0.066,0.062,0.131,0.131,0.201,0.192c0.17-0.104,0.271-0.313,0.199-0.544
		c-0.021-0.074-0.057-0.146-0.098-0.209c-0.064-0.105-0.055-0.201,0.047-0.275c0.084-0.062,0.209-0.047,0.262,0.053
		c0.027,0.051,0.035,0.117,0.04,0.18c0.018,0.258-0.033,0.497-0.198,0.697C102.55,82.644,102.481,82.699,102.419,82.756z"/>
</g>
<path fill="none" stroke="#BEC6CA" stroke-width="0.1" stroke-miterlimit="10" d="M130.126,73.959
	c0.058,0.002,0.202-0.027,0.29-0.08c0.094-0.058,0.146-0.137,0.15-0.242c0.002-0.047,0-0.094,0-0.146
	c-0.069,0.044-0.139,0.086-0.207,0.128c-0.043,0.026-0.107,0.062-0.131,0.074c0.079-0.318,0.156-0.63,0.236-0.948
	c0.283,0.211,0.563,0.419,0.849,0.627c-0.002,0.003-0.002,0.003-0.002,0.007c-0.143,0.004-0.286,0.01-0.435,0.012
	c0.004,0.013,0.008,0.021,0.01,0.024c0.037,0.104,0.061,0.207,0.055,0.316c-0.018,0.239-0.119,0.43-0.348,0.553
	c-0.136,0.072-0.283,0.117-0.433,0.161c-0.14,0.039-0.278,0.068-0.411,0.123c-0.154,0.061-0.295,0.134-0.415,0.245
	c-0.048,0.043-0.087,0.093-0.115,0.147c-0.003,0-0.005,0-0.005,0c-0.062-0.117-0.164-0.201-0.277-0.271
	c-0.154-0.096-0.322-0.154-0.498-0.201c-0.164-0.043-0.328-0.088-0.481-0.152c-0.088-0.035-0.171-0.074-0.241-0.139
	c-0.117-0.104-0.188-0.23-0.213-0.381c-0.024-0.139-0.002-0.271,0.046-0.404c0.004-0.008,0.005-0.013,0.009-0.021
	c-0.146-0.002-0.289-0.008-0.434-0.014c0-0.002-0.002-0.002-0.002-0.006c0.279-0.208,0.562-0.416,0.848-0.627
	c0.019,0.074,0.036,0.146,0.056,0.221l0.045,0.176c0.046,0.188,0.095,0.373,0.143,0.562c-0.116-0.071-0.229-0.142-0.343-0.211
	c-0.014,0.086-0.01,0.168,0.02,0.245c0.021,0.061,0.067,0.1,0.121,0.133c0.309,0.189,0.74,0.051,0.826-0.318
	c0.02-0.086,0.025-0.174,0.037-0.262c0.014-0.123,0.021-0.246,0.03-0.367c0.012-0.095,0.017-0.188,0.021-0.285
	c0.004-0.06,0.008-0.118,0.01-0.176c0.002-0.015,0.003-0.037,0.004-0.056c0.001-0.012,0.001-0.019,0.003-0.03
	c0.001-0.02-0.011-0.025-0.022-0.029c-0.062-0.021-0.125-0.034-0.188-0.053c-0.191-0.059-0.39-0.119-0.582-0.177
	c-0.019-0.007-0.021-0.014-0.021-0.03c0.002-0.104,0-0.209,0-0.313c0-0.004,0.002-0.011,0.002-0.017c0.134,0,0.271,0,0.407,0
	c0.134,0,0.271,0,0.405,0c0-0.043,0-0.086,0-0.129c0-0.007-0.011-0.013-0.018-0.017c-0.143-0.069-0.244-0.172-0.307-0.31
	c-0.164-0.364,0.074-0.776,0.484-0.848c0.131-0.021,0.256-0.009,0.377,0.042c0.015,0.007,0.035,0.017,0.083,0.041
	c0.056,0.033,0.088,0.06,0.126,0.099c0.301,0.297,0.216,0.781-0.169,0.972c-0.02,0.009-0.024,0.021-0.022,0.041
	c0.002,0.034,0,0.067,0,0.104c0.273,0,0.543,0,0.813,0c0.001,0.008,0.003,0.017,0.003,0.021c0,0.104,0,0.206,0,0.312
	c0,0.017-0.007,0.021-0.021,0.023c-0.255,0.077-0.515,0.154-0.771,0.232c-0.021,0.006-0.025,0.015-0.022,0.037
	c0.007,0.108,0.015,0.219,0.021,0.33c0.009,0.127,0.02,0.256,0.029,0.383c0.01,0.104,0.02,0.205,0.031,0.308
	c0.012,0.086,0.021,0.174,0.06,0.255c0.057,0.116,0.206,0.23,0.268,0.253c0.026,0.013,0.065,0.022,0.103,0.031
	C130.051,73.953,130.097,73.959,130.126,73.959z M129.217,71.293c0.133,0.002,0.241-0.101,0.242-0.228s-0.106-0.229-0.236-0.229
	c-0.137-0.002-0.246,0.101-0.248,0.226C128.973,71.19,129.081,71.293,129.217,71.293z"/>
<g>
	<path fill="none" stroke="#BEC6CA" stroke-width="0.1" stroke-miterlimit="10" d="M51.872,9.523
		c-0.028,0.231,0.135,0.429,0.363,0.43c0.069,0,0.154,0.021,0.179,0.059c0.058,0.086,0.083,0.042,0.123-0.001
		c0.021-0.02,0.044-0.04,0.061-0.007c0.059,0.128,0.157,0.086,0.24,0.05c0.183-0.078,0.322-0.21,0.422-0.385
		c0.03-0.056,0.063-0.117,0.06-0.18C53.301,9.318,53.272,9.147,53.248,9c-0.038-0.151-0.107-0.248-0.236-0.289
		c-0.026-0.008-0.056-0.024-0.08,0.002c-0.076,0.081-0.166,0.032-0.221-0.012c-0.09-0.068-0.164-0.045-0.247-0.017
		c-0.062,0.02-0.118,0.05-0.181,0.063c-0.272,0.067-0.372,0.271-0.39,0.492C51.885,9.334,51.885,9.43,51.872,9.523z"/>
	<path fill="none" stroke="#BEC6CA" stroke-width="0.1" stroke-miterlimit="10" d="M50.685,10.093
		c0.058-0.006,0.117-0.021,0.175-0.034c0.162-0.055,0.3-0.15,0.445-0.232c0.272-0.154,0.37-0.365,0.261-0.656
		c-0.026-0.067-0.062-0.134-0.06-0.204c0.002-0.132-0.092-0.189-0.177-0.243c-0.073-0.047-0.169-0.076-0.257-0.09
		c-0.13-0.019-0.269-0.04-0.386,0.053c-0.308,0.244-0.479,0.564-0.469,0.962C50.226,9.947,50.388,10.128,50.685,10.093z"/>
	<path fill="none" stroke="#BEC6CA" stroke-width="0.1" stroke-miterlimit="10" d="M50.401,12.245
		c0.048,0.078,0.109,0.15,0.145,0.234c0.057,0.138,0.155,0.224,0.286,0.281c0.081,0.035,0.153,0.085,0.26,0.054
		c0.065-0.02,0.146,0.069,0.19,0.038c0.164-0.067,0.312-0.107,0.375-0.221c0.127-0.226,0.271-0.44,0.403-0.659
		c0.113-0.184,0.196-0.386,0.26-0.592c0.062-0.19,0.1-0.383,0.071-0.584c-0.044-0.327-0.176-0.455-0.521-0.457
		c-0.055,0-0.11,0.011-0.167,0.019c-0.172,0.027-0.334,0.09-0.501,0.132c-0.181,0.044-0.36,0.058-0.541-0.012
		c-0.031-0.013-0.06-0.013-0.09,0.004c-0.212,0.12-0.424,0.238-0.634,0.36c-0.064,0.038-0.096,0.101-0.1,0.176
		c-0.002,0.052,0,0.107-0.012,0.158c-0.033,0.206,0.026,0.36,0.218,0.459c0.062,0.035,0.119,0.086,0.17,0.142
		c0.047,0.055,0.081,0.117,0.085,0.19C50.307,12.071,50.347,12.158,50.401,12.245z"/>
	<path fill="none" stroke="#BEC6CA" stroke-width="0.1" stroke-miterlimit="10" d="M54.219,10.562
		c-0.045-0.047-0.088-0.098-0.097-0.172c-0.009-0.128-0.185-0.294-0.313-0.289c-0.25,0.011-0.479,0.085-0.671,0.251
		c-0.033,0.03-0.072,0.059-0.083,0.107c-0.021,0.082-0.072,0.142-0.117,0.211c-0.065,0.096-0.111,0.196-0.025,0.316
		c0.053,0.073,0.062,0.18,0.011,0.252c-0.059,0.083-0.045,0.16,0.003,0.211c0.145,0.16,0.31,0.292,0.548,0.255
		c0.095-0.015,0.188-0.034,0.308-0.079c0.114-0.018,0.228-0.093,0.3-0.223c0.019-0.027,0.04-0.051,0.062-0.073
		c0.106-0.11,0.188-0.216,0.193-0.394C54.342,10.783,54.318,10.669,54.219,10.562z"/>
	<path fill="none" stroke="#BEC6CA" stroke-width="0.1" stroke-miterlimit="10" d="M53.773,12.291
		c-0.068-0.102-0.13-0.21-0.205-0.308c-0.12-0.153-0.272-0.218-0.438-0.152c-0.075,0.022-0.134,0.028-0.159,0.069
		c-0.045,0.065-0.112,0.082-0.181,0.112c-0.146,0.068-0.281,0.159-0.378,0.295c-0.102,0.145-0.096,0.276,0.014,0.413
		c0.021,0.024,0.052,0.05,0.043,0.083c-0.038,0.144,0.068,0.183,0.163,0.232c0.082,0.042,0.18,0.032,0.259,0.061
		c0.206,0.079,0.385,0.027,0.564-0.055c0.031-0.014,0.084-0.036,0.084-0.056c0.002-0.088,0.065-0.053,0.105-0.061
		c0.018-0.003,0.042,0.036,0.053-0.015c0.04-0.179,0.088-0.354,0.091-0.539C53.787,12.343,53.791,12.316,53.773,12.291z"/>
</g>
<g>
	<path fill="none" stroke="#BEC6CA" stroke-width="0.1" stroke-miterlimit="10" d="M57.938,81.194
		c0.039-0.104,0.076-0.199,0.114-0.299c0.012-0.027,0.005-0.041-0.01-0.066c-0.056-0.077-0.105-0.16-0.157-0.24
		c-0.013-0.023-0.021-0.035-0.052-0.037c-0.096-0.007-0.193-0.018-0.291-0.023c-0.027-0.002-0.038-0.01-0.041-0.036
		c-0.009-0.093-0.021-0.181-0.029-0.271c-0.006-0.021,0.002-0.031,0.024-0.041c0.097-0.027,0.189-0.06,0.285-0.092
		c0.015-0.005,0.028-0.023,0.036-0.04c0.033-0.095,0.067-0.188,0.1-0.287c0.005-0.015,0.005-0.036-0.003-0.05
		c-0.061-0.092-0.12-0.18-0.178-0.266c0.082-0.082,0.158-0.158,0.24-0.239c0.084,0.056,0.178,0.11,0.266,0.171
		c0.021,0.018,0.039,0.014,0.062,0.004c0.09-0.035,0.183-0.066,0.274-0.096c0.026-0.01,0.045-0.018,0.054-0.047
		c0.026-0.092,0.056-0.18,0.084-0.271c0.01-0.025,0.021-0.031,0.048-0.027c0.09,0.012,0.183,0.021,0.271,0.027
		c0.024,0.003,0.033,0.014,0.035,0.036c0.007,0.101,0.017,0.198,0.024,0.294c0.002,0.018,0.018,0.034,0.03,0.041
		c0.086,0.057,0.172,0.109,0.262,0.16c0.016,0.01,0.038,0.014,0.057,0.009c0.102-0.037,0.201-0.075,0.306-0.114
		c0.062,0.094,0.122,0.188,0.183,0.281c-0.079,0.074-0.154,0.148-0.233,0.221c-0.021,0.021-0.024,0.035-0.021,0.064
		c0.017,0.096,0.025,0.191,0.034,0.289c0.002,0.023,0.006,0.039,0.028,0.051c0.086,0.049,0.17,0.1,0.253,0.145
		c0.023,0.018,0.03,0.029,0.018,0.059c-0.033,0.092-0.063,0.186-0.099,0.281c-0.104-0.018-0.203-0.028-0.302-0.045
		c-0.036-0.006-0.062,0-0.089,0.031c-0.061,0.068-0.128,0.131-0.194,0.196c-0.021,0.019-0.034,0.03-0.028,0.062
		c0.021,0.104,0.031,0.207,0.047,0.316c-0.103,0.035-0.203,0.072-0.305,0.105c-0.009,0.002-0.026-0.014-0.032-0.025
		c-0.054-0.08-0.103-0.163-0.149-0.246c-0.014-0.021-0.026-0.025-0.054-0.029c-0.101-0.008-0.201-0.02-0.301-0.032
		c-0.023-0.005-0.038,0-0.055,0.016c-0.074,0.079-0.148,0.16-0.227,0.239C58.13,81.313,58.037,81.255,57.938,81.194z M58.751,79.552
		c-0.363-0.002-0.658,0.288-0.658,0.646c0,0.357,0.292,0.646,0.655,0.646c0.358,0.002,0.658-0.286,0.658-0.641
		C59.406,79.843,59.112,79.554,58.751,79.552z"/>
	<path fill="none" stroke="#BEC6CA" stroke-width="0.1" stroke-miterlimit="10" d="M56.8,80.474
		c-0.047-0.078-0.092-0.15-0.134-0.225c-0.014-0.021-0.028-0.031-0.055-0.031c-0.08-0.006-0.161-0.016-0.24-0.027
		c-0.022-0.002-0.037,0-0.054,0.02c-0.055,0.059-0.109,0.113-0.163,0.172c-0.018,0.018-0.027,0.021-0.05,0.01
		c-0.062-0.045-0.127-0.08-0.188-0.121c-0.011-0.009-0.02-0.029-0.014-0.043c0.023-0.07,0.054-0.146,0.084-0.219
		c0.009-0.021,0.005-0.039-0.013-0.061c-0.045-0.062-0.089-0.131-0.129-0.197c-0.012-0.021-0.021-0.034-0.049-0.035
		c-0.088-0.006-0.176-0.013-0.267-0.021c-0.014-0.086-0.021-0.17-0.028-0.252c0-0.01,0.015-0.028,0.027-0.034
		c0.074-0.025,0.147-0.05,0.225-0.07c0.022-0.008,0.032-0.021,0.039-0.042c0.021-0.077,0.049-0.152,0.079-0.229
		c0.011-0.021,0.007-0.035-0.004-0.057c-0.051-0.066-0.101-0.143-0.146-0.211c0.069-0.066,0.134-0.133,0.204-0.197
		c0.067,0.043,0.143,0.09,0.213,0.139c0.024,0.016,0.04,0.014,0.065,0.003c0.073-0.028,0.146-0.056,0.222-0.077
		c0.025-0.008,0.039-0.018,0.045-0.041c0.024-0.083,0.053-0.166,0.08-0.251c0.089,0.01,0.177,0.019,0.263,0.028
		c0.013,0.002,0.021,0.021,0.023,0.035c0.007,0.074,0.014,0.148,0.019,0.225c0.004,0.025,0.013,0.041,0.035,0.056
		c0.068,0.038,0.14,0.081,0.204,0.125c0.021,0.015,0.033,0.019,0.058,0.009c0.082-0.031,0.162-0.062,0.251-0.097
		c0.049,0.079,0.099,0.156,0.149,0.237c-0.062,0.06-0.124,0.117-0.186,0.174c-0.023,0.021-0.028,0.041-0.022,0.072
		c0.017,0.074,0.021,0.148,0.025,0.227c0.001,0.027,0.01,0.041,0.031,0.053c0.065,0.037,0.133,0.077,0.199,0.116
		c0.023,0.011,0.028,0.022,0.02,0.048c-0.022,0.066-0.047,0.133-0.068,0.201c-0.009,0.027-0.021,0.033-0.05,0.029
		c-0.074-0.012-0.149-0.02-0.225-0.032c-0.027-0.005-0.042,0.005-0.061,0.022c-0.052,0.057-0.104,0.113-0.161,0.16
		c-0.025,0.021-0.033,0.045-0.025,0.072c0.012,0.07,0.02,0.143,0.03,0.211c0.006,0.027-0.002,0.045-0.028,0.053
		C56.957,80.418,56.881,80.444,56.8,80.474z M56.569,78.882c-0.306,0-0.548,0.239-0.552,0.543c-0.002,0.289,0.246,0.536,0.545,0.538
		c0.303,0,0.552-0.241,0.554-0.536C57.117,79.128,56.872,78.884,56.569,78.882z"/>
	<path fill="none" stroke="#BEC6CA" stroke-width="0.1" stroke-miterlimit="10" d="M57.818,79.091
		c-0.062-0.039-0.12-0.074-0.183-0.109c0.023-0.061,0.044-0.119,0.069-0.177c0.009-0.021,0.005-0.038-0.012-0.06
		c-0.031-0.04-0.061-0.084-0.084-0.129c-0.014-0.023-0.023-0.035-0.055-0.037c-0.062-0.003-0.121-0.01-0.188-0.018
		c-0.008-0.066-0.018-0.135-0.024-0.205c0.065-0.021,0.125-0.037,0.188-0.062c0.013-0.004,0.026-0.02,0.032-0.033
		c0.021-0.053,0.039-0.105,0.057-0.16c0.004-0.018,0.004-0.037-0.005-0.053c-0.033-0.053-0.068-0.104-0.101-0.146
		c0.05-0.053,0.101-0.101,0.153-0.151c0.044,0.03,0.096,0.062,0.147,0.097c0.021,0.016,0.036,0.018,0.06,0.006
		c0.05-0.021,0.099-0.041,0.15-0.054c0.029-0.007,0.041-0.019,0.049-0.046c0.014-0.047,0.029-0.094,0.045-0.141
		c0.005-0.022,0.014-0.033,0.039-0.03c0.059,0.008,0.117,0.013,0.18,0.019c0.006,0.062,0.013,0.119,0.015,0.18
		c0.003,0.027,0.014,0.047,0.041,0.061c0.048,0.021,0.092,0.059,0.139,0.082c0.014,0.008,0.034,0.014,0.051,0.008
		c0.06-0.021,0.12-0.045,0.179-0.064c0.039,0.059,0.077,0.115,0.114,0.176c-0.047,0.044-0.092,0.086-0.137,0.127
		c-0.021,0.018-0.024,0.031-0.02,0.059c0.01,0.051,0.016,0.104,0.02,0.155c0,0.024,0.007,0.04,0.027,0.054
		c0.048,0.023,0.096,0.051,0.142,0.082c0.009,0.006,0.019,0.024,0.016,0.035c-0.016,0.059-0.039,0.114-0.059,0.174
		c-0.063-0.009-0.127-0.016-0.188-0.022c-0.024-0.007-0.04,0.001-0.057,0.021c-0.035,0.041-0.074,0.077-0.113,0.112
		c-0.019,0.017-0.028,0.026-0.021,0.056c0.012,0.053,0.018,0.104,0.021,0.157c0.001,0.015-0.012,0.031-0.023,0.037
		c-0.047,0.019-0.093,0.036-0.143,0.052c-0.014,0.002-0.035-0.007-0.041-0.019c-0.03-0.043-0.057-0.091-0.085-0.136
		c-0.011-0.021-0.021-0.026-0.047-0.028c-0.056-0.002-0.113-0.015-0.17-0.017c-0.019,0-0.038,0.006-0.049,0.017
		C57.905,78.996,57.864,79.042,57.818,79.091z M58.546,78.36c-0.001-0.226-0.183-0.401-0.413-0.398c-0.221,0-0.402,0.182-0.402,0.4
		c0.001,0.225,0.188,0.404,0.411,0.402C58.367,78.763,58.548,78.581,58.546,78.36z"/>
	<path fill="none" stroke="#BEC6CA" stroke-width="0.1" stroke-miterlimit="10" d="M58.303,80.198c0-0.244,0.2-0.439,0.446-0.439
		c0.247,0.001,0.446,0.199,0.444,0.443c-0.002,0.242-0.202,0.438-0.446,0.436C58.5,80.638,58.302,80.44,58.303,80.198z
		 M58.47,80.198c0.001,0.152,0.123,0.271,0.277,0.275c0.149,0,0.278-0.125,0.278-0.275c-0.003-0.152-0.124-0.272-0.28-0.272
		C58.594,79.926,58.47,80.05,58.47,80.198z"/>
	<path fill="none" stroke="#BEC6CA" stroke-width="0.1" stroke-miterlimit="10" d="M56.937,79.423c0,0.203-0.167,0.366-0.372,0.366
		c-0.203,0.001-0.371-0.165-0.371-0.368c0-0.201,0.169-0.367,0.374-0.367C56.773,79.056,56.937,79.22,56.937,79.423z M56.798,79.423
		c0-0.128-0.104-0.23-0.232-0.23c-0.127,0.002-0.229,0.104-0.229,0.229c-0.002,0.127,0.103,0.229,0.23,0.229
		C56.694,79.651,56.798,79.548,56.798,79.423z"/>
	<path fill="none" stroke="#BEC6CA" stroke-width="0.1" stroke-miterlimit="10" d="M58.136,78.636
		c-0.149-0.001-0.274-0.125-0.274-0.273c0.002-0.15,0.126-0.273,0.276-0.273c0.153,0.002,0.279,0.127,0.278,0.275
		C58.417,78.513,58.292,78.636,58.136,78.636z M58.141,78.192c-0.093-0.002-0.173,0.074-0.175,0.168
		c-0.001,0.093,0.074,0.17,0.168,0.172c0.095,0.004,0.175-0.072,0.177-0.166C58.315,78.272,58.24,78.196,58.141,78.192z"/>
</g>
<path fill="none" stroke="#BEC6CA" stroke-width="0.1" stroke-miterlimit="10" d="M102.696,6.859
	c-0.225,0.323-0.472,0.539-0.588,0.615c-0.391,0.252-0.815,0.375-1.261,0.338c0.124-0.066,0.284-0.123,0.409-0.224
	c0.363-0.299,0.516-0.69,0.466-1.143c-0.044-0.39-0.244-0.719-0.49-1.045c-0.017,0.05-0.024,0.088-0.033,0.126
	c-0.083,0.31-0.259,0.558-0.542,0.738c-0.135,0.085-0.275,0.166-0.404,0.255c-0.302,0.208-0.435,0.537-0.337,0.847
	c0.026,0.083,0.079,0.16,0.13,0.26c-0.113-0.07-0.225-0.126-0.316-0.196c-0.359-0.264-0.59-0.6-0.642-1.033
	c-0.042-0.36,0.075-0.683,0.28-0.98c0.209-0.305,0.494-0.533,0.838-0.699c0.008-0.004,0.018-0.004,0.02-0.005
	c-0.053,0.077-0.114,0.152-0.153,0.236c-0.071,0.153-0.005,0.261,0.17,0.284c0.104,0.015,0.199-0.013,0.281-0.076
	c0.226-0.169,0.335-0.402,0.388-0.66c0.078-0.366,0.057-0.732,0.01-1.098c-0.003-0.03-0.004-0.06,0.002-0.095
	c0.489,0.432,0.795,0.976,1.061,1.553c0.094-0.131,0.114-0.273,0.125-0.415c0.01-0.141,0.002-0.285,0.002-0.453
	c0.15,0.208,0.306,0.396,0.436,0.6c0.274,0.428,0.43,0.89,0.406,1.395C102.932,6.29,102.854,6.582,102.696,6.859z"/>
<g>
	<path fill="none" stroke="#BEC6CA" stroke-width="0.1" stroke-miterlimit="10" d="M104.557,48.071
		c0.051,0.383,0.099,0.764,0.152,1.176c0.057,0.027,0.152,0.072,0.258,0.121c-0.088,0.016-0.162,0.024-0.254,0.039
		c0.012,0.058,0.021,0.115,0.037,0.174c0.047,0.178,0.016,0.352,0.004,0.524c-0.002,0.038,0.078,0.078,0.117,0.116
		c-0.146,0.087-0.205,0.654-0.06,0.861c-0.022,0.021-0.048,0.045-0.079,0.076c0.037,0.023,0.069,0.047,0.121,0.078
		c-0.058,0.021-0.105,0.036-0.138,0.051c-0.048,0.436-0.095,0.865-0.146,1.297c-0.018-0.002-0.033-0.002-0.051-0.002
		c-0.006-0.149-0.09-0.281-0.064-0.443c0.018-0.135,0.018-0.3-0.141-0.406c-0.021-0.016-0.057-0.017-0.1-0.031
		c0.147-0.014,0.166-0.076,0.147-0.189c-0.038-0.229-0.044-0.457-0.065-0.688c0-0.012-0.039-0.021-0.061-0.031
		c0.153-0.121,0.092-0.805-0.084-0.895c0.228-0.053,0.203-0.085,0.076-0.238c-0.044,0.002-0.096,0.006-0.154,0.012
		c0.269-0.178,0.303-0.258,0.183-0.432c0.121-0.091,0.136-0.67,0.099-0.732c0.037-0.079,0.07-0.145,0.1-0.209
		c0.029-0.074,0.047-0.149,0.07-0.229C104.536,48.069,104.546,48.069,104.557,48.071z"/>
	<path fill="none" stroke="#BEC6CA" stroke-width="0.1" stroke-miterlimit="10" d="M105.721,48.28
		c0.072,0.295-0.034,0.578,0.146,0.838c-0.127,0.143-0.141,0.287-0.021,0.438c-0.156,0.064-0.08,0.188-0.088,0.291
		c-0.008,0.107-0.005,0.229,0.189,0.229c-0.062,0.008-0.119,0.019-0.18,0.025c0.015,0.048,0.025,0.098,0.043,0.154
		c-0.163,0.048-0.072,0.203-0.113,0.312c-0.041,0.101-0.037,0.212-0.053,0.318c-0.02,0.106-0.047,0.214-0.039,0.319
		c0.002,0.063,0.055,0.127,0.086,0.188c-0.061,0.026-0.154,0.021-0.146,0.168c0.01,0.156-0.104,0.313-0.186,0.474
		c-0.016-0.396-0.028-0.795-0.043-1.188c-0.053-0.019-0.094-0.03-0.152-0.048c0.149-0.047,0.195-0.129,0.184-0.246
		c-0.008-0.073,0.016-0.146,0.031-0.223c0-0.094,0-0.188,0-0.295c-0.033-0.013-0.084-0.035-0.156-0.062
		c0.12-0.035,0.262-0.028,0.178-0.192c-0.047-0.09-0.017-0.211-0.002-0.317c0.006-0.058,0.057-0.105,0.072-0.161
		c0.021-0.059,0.053-0.128,0.028-0.18c-0.032-0.074-0.104-0.139-0.157-0.205c0.029,0,0.087,0,0.162,0
		C105.573,48.72,105.642,48.513,105.721,48.28z"/>
	<path fill="none" stroke="#BEC6CA" stroke-width="0.1" stroke-miterlimit="10" d="M103.814,51.122
		c-0.103,0.256-0.054,0.56-0.104,0.856c-0.036-0.116-0.062-0.239-0.115-0.356c-0.044-0.105-0.109-0.207-0.162-0.297
		c0.018-0.074,0.049-0.153,0.048-0.23c-0.002-0.127,0.03-0.262-0.099-0.369c-0.012-0.011,0.045-0.07,0.041-0.104
		c-0.013-0.072-0.049-0.143-0.058-0.213c-0.005-0.041,0.021-0.086,0.042-0.158c-0.1-0.033-0.208-0.07-0.318-0.108
		c0.118-0.022,0.252-0.062,0.244-0.201c-0.021-0.476-0.027-0.476-0.287-0.577c0.062,0,0.109,0.012,0.131-0.007
		c0.045-0.036,0.119-0.104,0.105-0.13c-0.074-0.129-0.029-0.253-0.02-0.38c0.018-0.14,0.062-0.278,0.098-0.438
		c0.059,0.226,0.109,0.435,0.168,0.642c0.012,0.037,0.043,0.069,0.062,0.104c0.007,0.012,0.021,0.024,0.021,0.034
		c-0.096,0.188,0.094,0.377,0.004,0.566c-0.002,0.004-0.003,0.01-0.002,0.012c0.153,0.206,0.039,0.438,0.088,0.656
		c0.012,0.045,0.075,0.084,0.107,0.118c-0.021,0.048-0.075,0.104-0.072,0.16C103.745,50.838,103.782,50.968,103.814,51.122z"/>
</g>
<g>
	<path fill="none" stroke="#BEC6CA" stroke-width="0.1" stroke-miterlimit="10" d="M13.944,80.071c0.512,0,1.008,0,1.501,0
		c0.061,0,0.117,0,0.188,0c0.033-0.291,0.118-0.539,0.402-0.664c0.333-0.146,0.81,0.035,0.833,0.392
		c0.062,0.937,0.213,1.894-0.146,2.803c-0.345,0.878-1.249,1.334-2.095,1.265c-1.08-0.092-1.813-0.92-1.908-1.75
		c-0.061-0.522-0.035-1.057-0.046-1.586c-0.003-0.17-0.001-0.342-0.001-0.515c0.003-0.349,0.237-0.625,0.544-0.653
		c0.354-0.033,0.626,0.17,0.698,0.526C13.926,79.94,13.932,79.991,13.944,80.071z M14.806,81.45c-0.199,0-0.396-0.01-0.595,0.008
		c-0.085,0.008-0.193,0.056-0.244,0.123c-0.305,0.404-0.242,0.998,0.131,1.348c0.36,0.338,0.963,0.357,1.343,0.045
		c0.396-0.324,0.485-0.906,0.218-1.342c-0.082-0.133-0.178-0.197-0.335-0.184C15.151,81.463,14.979,81.45,14.806,81.45z"/>
	<path fill="none" stroke="#BEC6CA" stroke-width="0.1" stroke-miterlimit="10" d="M15.316,81.778
		c0.085,0.326-0.133,0.621-0.458,0.67c-0.288,0.045-0.562-0.172-0.616-0.485c-0.017-0.088-0.027-0.183,0.104-0.183
		C14.668,81.778,14.99,81.778,15.316,81.778z"/>
</g>
<g>
	<path fill="none" stroke="#BEC6CA" stroke-width="0.1" stroke-miterlimit="10" d="M77.529,15.772c0.511,0,1.007,0,1.504,0
		c0.058,0,0.115,0,0.188,0c0.034-0.291,0.118-0.538,0.401-0.663c0.332-0.147,0.811,0.035,0.834,0.39
		c0.061,0.938,0.211,1.895-0.146,2.805c-0.349,0.876-1.249,1.333-2.097,1.262c-1.08-0.089-1.812-0.92-1.908-1.75
		c-0.061-0.523-0.034-1.057-0.046-1.584c-0.005-0.172-0.004-0.345-0.002-0.517c0.003-0.348,0.236-0.625,0.544-0.654
		c0.354-0.033,0.626,0.172,0.697,0.529C77.51,15.644,77.515,15.695,77.529,15.772z M78.392,17.155c-0.198,0-0.397-0.012-0.597,0.007
		c-0.084,0.007-0.19,0.056-0.244,0.121c-0.305,0.408-0.239,1,0.133,1.35c0.359,0.337,0.963,0.356,1.343,0.044
		c0.396-0.325,0.484-0.905,0.215-1.343c-0.079-0.131-0.174-0.196-0.336-0.181C78.735,17.166,78.562,17.155,78.392,17.155z"/>
	<path fill="none" stroke="#BEC6CA" stroke-width="0.1" stroke-miterlimit="10" d="M78.902,17.481
		c0.086,0.326-0.133,0.622-0.459,0.67c-0.286,0.043-0.562-0.173-0.616-0.488c-0.017-0.086-0.028-0.182,0.104-0.182
		C78.253,17.481,78.575,17.481,78.902,17.481z"/>
</g>
</svg>
